<?xml version="1.0" standalone="no"?>
<!DOCTYPE svg PUBLIC "-//W3C//DTD SVG 20010904//EN"
 "http://www.w3.org/TR/2001/REC-SVG-20010904/DTD/svg10.dtd">
<svg version="1.0" xmlns="http://www.w3.org/2000/svg"
 width="20" height="20" viewBox="0 0 512.000000 512.000000"
 preserveAspectRatio="xMidYMid meet">

<g transform="translate(0.000000,512.000000) scale(0.100000,-0.100000)"
fill="#ffffff" stroke="none">
<path d="M2415 4900 c-11 -5 -415 -404 -897 -887 l-878 -878 0 -1100 c0 -1073
1 -1101 20 -1132 12 -21 32 -36 57 -43 27 -8 236 -10 695 -8 l658 3 27 28 28
27 5 493 5 492 33 67 c59 121 154 173 302 166 132 -6 220 -60 272 -167 23 -45
23 -52 28 -541 5 -543 3 -525 66 -555 28 -13 125 -15 684 -15 573 0 656 2 685
16 69 32 65 -35 65 1158 0 901 -2 1082 -14 1109 -18 42 -1731 1753 -1769 1767
-33 12 -45 12 -72 0z m1635 -2837 l0 -993 -530 0 -530 0 0 378 c0 213 -5 405
-11 441 -17 109 -67 202 -158 292 -92 93 -184 142 -300 160 -255 39 -536 -165
-590 -429 -7 -33 -11 -202 -11 -447 l0 -395 -535 0 -535 0 0 987 0 988 802
802 803 803 797 -797 798 -798 0 -992z"/>
</g>
</svg>
